<svg width="54" height="46" viewBox="0 0 54 46" fill="none" xmlns="http://www.w3.org/2000/svg">
<path d="M33.5713 46H20.4287V32.8574H33.5713V46ZM23.7144 42.7144H30.2857V36.1431H23.7144V42.7144Z" fill="#13829B"/>
<path d="M53.2852 14.7863H36.8569V18.0719H43.4282V23.0004H10.5717V18.0719H17.143V14.7863H0.714722V18.0719H7.28603V26.2861H15.717L10.5717 34.0024V41.0715H13.8573V34.998L19.6647 26.2861H34.3352L40.1426 34.998V41.0715H43.4282V34.0024L38.2829 26.2861H46.7139V18.0719H53.2852V14.7863ZM27 6.57215C25.7057 6.57167 24.4241 6.82685 23.2288 7.32304C22.0334 7.81923 20.9478 8.54664 20.0344 9.46352L22.3557 11.7848C22.9651 11.1742 23.6891 10.6897 24.486 10.3591C25.2829 10.0286 26.1372 9.8584 27 9.8584C27.8627 9.8584 28.717 10.0286 29.5139 10.3591C30.3109 10.6897 31.0348 11.1742 31.6442 11.7848L33.9672 9.46188C33.0535 8.54503 31.9676 7.81775 30.7719 7.32184C29.5762 6.82593 28.2944 6.57115 27 6.57215Z" fill="#13829B"/>
<path d="M15.3884 4.81759L17.7114 7.14055C18.9303 5.9192 20.3781 4.95023 21.972 4.28911C23.5658 3.62798 25.2744 3.28768 26.9999 3.28768C28.7255 3.28768 30.434 3.62798 32.0279 4.28911C33.6217 4.95023 35.0696 5.9192 36.2885 7.14055L38.6114 4.81759C37.0879 3.29047 35.278 2.07887 33.2856 1.2522C31.2931 0.425521 29.1571 0 26.9999 0C24.8428 0 22.7068 0.425521 20.7143 1.2522C18.7218 2.07887 16.912 3.29047 15.3884 4.81759Z" fill="#13829B"/>
</svg>
