<svg width="48" height="46" viewBox="0 0 48 46" fill="none" xmlns="http://www.w3.org/2000/svg">
<path d="M26.2537 46V41.3769C27.8718 41.1457 29.4413 40.7027 30.9623 40.0477C32.4849 39.3928 33.9204 38.5645 35.2688 37.5628L38.6205 40.9146C36.8098 42.34 34.8642 43.4866 32.7838 44.3542C30.7034 45.2202 28.5267 45.7688 26.2537 46ZM41.8567 37.5628L38.6205 34.3266C39.6222 33.0553 40.4312 31.6583 41.0477 30.1358C41.6641 28.6148 42.0879 27.0067 42.319 25.3116H47.0577C46.7495 27.7002 46.1624 29.9247 45.2963 31.985C44.4287 34.0469 43.2822 35.9062 41.8567 37.5628ZM42.319 20.6884C42.0879 18.9548 41.6641 17.3267 41.0477 15.8041C40.4312 14.2831 39.6222 12.9062 38.6205 11.6734L41.8567 8.43718C43.3207 10.1323 44.5057 12.0201 45.4119 14.1005C46.3165 16.1809 46.8651 18.3769 47.0577 20.6884H42.319ZM21.6306 46C15.7361 45.3065 10.8148 42.7738 6.86666 38.4019C2.91698 34.0284 0.942139 28.8945 0.942139 23C0.942139 17.0285 2.91698 11.866 6.86666 7.51256C10.8148 3.15913 15.7361 0.654941 21.6306 0V4.62312C17.0075 5.27806 13.1741 7.3392 10.1306 10.8065C7.08703 14.2739 5.56525 18.3384 5.56525 23C5.56525 27.6231 7.08703 31.6683 10.1306 35.1357C13.1741 38.603 17.0075 40.6834 21.6306 41.3769V46ZM35.3843 8.43718C33.9974 7.39698 32.5334 6.54941 30.9924 5.89447C29.4513 5.23953 27.8718 4.81575 26.2537 4.62312V0C28.5267 0.19263 30.7034 0.721977 32.7838 1.58804C34.8642 2.45564 36.8098 3.62144 38.6205 5.08543L35.3843 8.43718ZM23.9999 34.5578C20.8793 31.8995 18.5585 29.4431 17.0375 27.1885C15.515 24.9355 14.7537 22.8459 14.7537 20.9196C14.7537 18.0301 15.6883 15.7286 17.5576 14.015C19.4254 12.2998 21.5728 11.4422 23.9999 11.4422C26.4271 11.4422 28.5753 12.2998 30.4445 14.015C32.3123 15.7286 33.2462 18.0301 33.2462 20.9196C33.2462 22.8459 32.4849 24.9355 30.9623 27.1885C29.4413 29.4431 27.1205 31.8995 23.9999 34.5578ZM23.9999 23C24.6934 23 25.2813 22.7596 25.7636 22.2788C26.2444 21.7964 26.4848 21.2085 26.4848 20.5151C26.4848 19.8601 26.2444 19.2822 25.7636 18.7814C25.2813 18.2806 24.6934 18.0301 23.9999 18.0301C23.3065 18.0301 22.7193 18.2806 22.2385 18.7814C21.7562 19.2822 21.515 19.8601 21.515 20.5151C21.515 21.2085 21.7562 21.7964 22.2385 22.2788C22.7193 22.7596 23.3065 23 23.9999 23Z" fill="#13829B"/>
</svg>
