<svg width="69" height="69" viewBox="0 0 69 69" fill="none" xmlns="http://www.w3.org/2000/svg">
<path d="M37.95 61.8861C44.9096 61.0005 51.271 57.4982 55.741 52.0908C60.2111 46.6834 62.4544 39.7769 62.0151 32.7749C61.5757 25.7729 58.4867 19.2009 53.3758 14.3947C48.2649 9.58849 41.5158 6.9087 34.5 6.9C27.4757 6.89477 20.7136 9.56802 15.5917 14.375C10.4698 19.1821 7.37348 25.7611 6.93361 32.7717C6.49375 39.7822 8.74346 46.6967 13.2243 52.1063C17.7052 57.5158 24.0801 61.0133 31.05 61.8861V41.4H24.15V34.5H31.05V28.7937C31.05 24.181 31.533 22.5078 32.43 20.8207C33.3136 19.1516 34.6793 17.7871 36.3492 16.905C37.6671 16.1978 39.3059 15.7734 42.1693 15.5906C43.3044 15.5181 44.7741 15.6078 46.5785 15.8666V22.4215H44.85C41.6864 22.4215 40.3788 22.5699 39.5991 22.9874C39.1339 23.2266 38.7551 23.6054 38.5158 24.0707C38.1018 24.8504 37.95 25.6232 37.95 28.7903V34.5H46.575L44.85 41.4H37.95V61.8861ZM34.5 69C15.4457 69 0 53.5544 0 34.5C0 15.4457 15.4457 0 34.5 0C53.5544 0 69 15.4457 69 34.5C69 53.5544 53.5544 69 34.5 69Z" fill="#FCC29A"/>
</svg>
