<svg width="54" height="46" viewBox="0 0 54 46" fill="none" xmlns="http://www.w3.org/2000/svg">
<path d="M6.87495 5.75C6.06037 5.75 5.37708 5.47496 4.82508 4.92487C4.27499 4.37287 3.99995 3.68958 3.99995 2.875C3.99995 2.06042 4.27499 1.37713 4.82508 0.825126C5.37708 0.275042 6.06037 0 6.87495 0H47.1249C47.9395 0 48.6219 0.275042 49.1719 0.825126C49.7239 1.37713 49.9999 2.06042 49.9999 2.875C49.9999 3.68958 49.7239 4.37287 49.1719 4.92487C48.6219 5.47496 47.9395 5.75 47.1249 5.75H6.87495ZM6.87495 46C6.06037 46 5.37708 45.724 4.82508 45.172C4.27499 44.6219 3.99995 43.9396 3.99995 43.125V28.75H3.49683C2.58641 28.75 1.8437 28.4021 1.2687 27.7064C0.693701 27.0125 0.502034 26.2104 0.693701 25.3L3.5687 10.925C3.71245 10.2542 4.04787 9.70312 4.57495 9.27187C5.10203 8.84062 5.70099 8.625 6.37183 8.625H47.6281C48.2989 8.625 48.8979 8.84062 49.4249 9.27187C49.952 9.70312 50.2874 10.2542 50.4312 10.925L53.3062 25.3C53.4979 26.2104 53.3062 27.0125 52.7312 27.7064C52.1562 28.4021 51.4135 28.75 50.5031 28.75H49.9999V43.125C49.9999 43.9396 49.7239 44.6219 49.1719 45.172C48.6219 45.724 47.9395 46 47.1249 46C46.3104 46 45.628 45.724 45.0779 45.172C44.5259 44.6219 44.2499 43.9396 44.2499 43.125V28.75H32.75V43.125C32.75 43.9396 32.4749 44.6219 31.9248 45.172C31.3728 45.724 30.6895 46 29.8749 46H6.87495ZM9.74995 40.25H27V28.75H9.74995V40.25ZM7.0187 23H46.9812H7.0187ZM7.0187 23H46.9812L45.2562 14.375H8.7437L7.0187 23Z" fill="#13829B"/>
</svg>
