<svg width="50" height="46" viewBox="0 0 50 46" fill="none" xmlns="http://www.w3.org/2000/svg">
<path d="M37.397 26.6337C32.84 26.6337 29.018 29.8533 28.038 34.1381C25.7105 33.1456 23.579 33.4119 21.962 34.1139C20.9575 29.8049 17.1355 26.6337 12.603 26.6337C7.2865 26.6337 2.95 30.9669 2.95 36.3168C2.95 41.6668 7.2865 46 12.603 46C17.65 46 21.766 42.0783 22.158 37.0915C22.991 36.5105 25.1715 35.4212 27.842 37.1399C28.283 42.1025 32.35 46 37.397 46C42.7135 46 47.05 41.6668 47.05 36.3168C47.05 30.9669 42.7135 26.6337 37.397 26.6337ZM12.603 43.2403C8.781 43.2403 5.7185 40.1417 5.7185 36.3168C5.7185 32.492 8.8055 29.3934 12.603 29.3934C16.425 29.3934 19.4875 32.492 19.4875 36.3168C19.4875 40.1417 16.425 43.2403 12.603 43.2403ZM37.397 43.2403C33.575 43.2403 30.5125 40.1417 30.5125 36.3168C30.5125 32.492 33.575 29.3934 37.397 29.3934C41.219 29.3934 44.306 32.492 44.306 36.3168C44.306 40.1417 41.1945 43.2403 37.397 43.2403ZM49.5 20.5817H0.5V24.2129H49.5V20.5817ZM33.6485 1.53011C33.1095 0.34392 31.7375 -0.285485 30.439 0.126049L25 1.91743L19.5365 0.126049L19.414 0.101841C18.1155 -0.261277 16.7435 0.416544 16.2535 1.65115L10.3 16.9505H39.7L33.722 1.65115L33.6485 1.53011Z" fill="#13829B"/>
</svg>
