<svg width="70" height="69" viewBox="0 0 70 69" fill="none" xmlns="http://www.w3.org/2000/svg">
<path d="M52.3994 38.3986V51.1533H45.0061V39.2508C45.0061 36.2631 43.9366 34.2241 41.2594 34.2241C39.217 34.2241 37.9991 35.5972 37.4644 36.9289C37.2712 37.405 37.2194 38.0674 37.2194 38.7298V51.1533H29.8226C29.8226 51.1533 29.9227 30.9984 29.8226 28.9111H37.2194V32.061L37.1711 32.1334H37.2194V32.0644C38.2027 30.5464 39.9553 28.3867 43.8848 28.3867C48.7493 28.3867 52.3994 31.5676 52.3994 38.3986ZM22.0843 18.1851C19.5554 18.1851 17.8994 19.848 17.8994 22.0284C17.8994 24.1674 19.5071 25.8751 21.9877 25.8751H22.036C24.6166 25.8751 26.2208 24.1639 26.2208 22.0284C26.1725 19.848 24.6166 18.1851 22.0843 18.1851ZM18.3376 51.1533H25.7344V28.9111H18.3376V51.1533Z" fill="#FCC29A"/>
<path d="M35.1494 62.1C42.4694 62.1 49.4896 59.1922 54.6656 54.0161C59.8416 48.8401 62.7494 41.82 62.7494 34.5C62.7494 27.18 59.8416 20.1599 54.6656 14.9839C49.4896 9.80785 42.4694 6.9 35.1494 6.9C27.8294 6.9 20.8093 9.80785 15.6333 14.9839C10.4573 20.1599 7.54941 27.18 7.54941 34.5C7.54941 41.82 10.4573 48.8401 15.6333 54.0161C20.8093 59.1922 27.8294 62.1 35.1494 62.1ZM35.1494 69C16.0951 69 0.649414 53.5544 0.649414 34.5C0.649414 15.4457 16.0951 0 35.1494 0C54.2038 0 69.6494 15.4457 69.6494 34.5C69.6494 53.5544 54.2038 69 35.1494 69Z" fill="#FCC29A"/>
</svg>
