<svg width="69" height="69" viewBox="0 0 69 69" fill="none" xmlns="http://www.w3.org/2000/svg">
<path d="M34.5 62.1C41.82 62.1 48.8401 59.1922 54.0161 54.0161C59.1922 48.8401 62.1 41.82 62.1 34.5C62.1 27.18 59.1922 20.1599 54.0161 14.9839C48.8401 9.80785 41.82 6.9 34.5 6.9C27.18 6.9 20.1599 9.80785 14.9839 14.9839C9.80785 20.1599 6.9 27.18 6.9 34.5C6.9 41.82 9.80785 48.8401 14.9839 54.0161C20.1599 59.1922 27.18 62.1 34.5 62.1ZM34.5 69C15.4457 69 0 53.5544 0 34.5C0 15.4457 15.4457 0 34.5 0C53.5544 0 69 15.4457 69 34.5C69 53.5544 53.5544 69 34.5 69Z" fill="#FCC29A"/>
<path d="M51.75 23.9669C50.4804 24.5189 49.1176 24.8984 47.6859 25.064C49.1487 24.2015 50.2665 22.8353 50.7978 21.2103C49.4039 22.0227 47.883 22.5942 46.299 22.9008C45.6327 22.2025 44.8312 21.6471 43.9432 21.2687C43.0553 20.8903 42.0996 20.6967 41.1344 20.6997C37.2255 20.6997 34.0584 23.822 34.0584 27.6687C34.0584 28.2138 34.1205 28.7451 34.2413 29.2557C31.4375 29.1226 28.6923 28.4065 26.1808 27.1531C23.6693 25.8998 21.4467 24.1366 19.6547 21.9762C19.0252 23.0357 18.6939 24.2456 18.6956 25.478C18.6956 27.893 19.9479 30.032 21.8454 31.2774C20.7222 31.2422 19.6231 30.9432 18.6369 30.4046V30.4908C18.6476 32.1105 19.2193 33.6764 20.2547 34.9219C21.2901 36.1674 22.7252 37.0155 24.3156 37.3218C23.2715 37.5979 22.179 37.638 21.1174 37.4391C21.5802 38.8325 22.4653 40.0472 23.6498 40.9146C24.8344 41.782 26.2596 42.259 27.7276 42.2795C25.209 44.2203 22.1167 45.2689 18.937 45.2603C18.3678 45.2603 17.8055 45.2258 17.25 45.1637C20.4946 47.2174 24.2568 48.3052 28.0968 48.2997C41.1171 48.2997 48.2344 37.6806 48.2344 28.4691L48.2103 27.5652C49.5982 26.5899 50.7976 25.3706 51.75 23.9669Z" fill="#FCC29A"/>
</svg>
