<svg width="64" height="58" viewBox="0 0 64 58" fill="none" xmlns="http://www.w3.org/2000/svg">
<path opacity="0.2" d="M50.6725 9.65851L50.0089 18.2621C49.9865 18.5709 49.8781 18.8673 49.6958 19.1176C49.5135 19.3679 49.2648 19.5622 48.9777 19.6783L43.7137 21.8217L37.3864 6.28195L49.2125 7.85259C49.6396 7.91208 50.0281 8.13178 50.2992 8.46714C50.5703 8.8025 50.7038 9.22841 50.6725 9.65851ZM5.37417 28.1026L11.8589 33.7956C12.0906 34.001 12.3753 34.1373 12.6805 34.1891C12.9858 34.2409 13.2995 34.2062 13.586 34.0888L18.8501 31.9454L12.5228 16.4056L5.15739 25.7905C4.89332 26.1314 4.76879 26.56 4.80904 26.9894C4.8493 27.4187 5.05133 27.8167 5.37417 28.1026Z" fill="#333333"/>
<path d="M49.4438 6.19586L37.6177 4.62522L37.5983 4.63313L37.4853 4.63383L37.4465 4.64964L37.3335 4.65034L30.5932 7.39481C30.181 7.56262 29.8524 7.88728 29.6797 8.29737C29.5069 8.70745 29.5041 9.16938 29.6719 9.58152C30.1754 10.8179 30.167 12.2037 29.6487 13.434C29.1304 14.6642 28.1446 15.6382 26.9082 16.1416C25.6718 16.6451 24.286 16.6367 23.0558 16.1184C21.8255 15.6001 20.8515 14.6143 20.3481 13.3779C20.1803 12.9658 19.8556 12.6372 19.4455 12.4644C19.0355 12.2916 18.5735 12.2889 18.1614 12.4567L11.421 15.2011L11.3397 15.2795L11.3009 15.2953L11.2196 15.3737L11.2002 15.3816L3.83476 24.7665C3.30155 25.438 3.04746 26.289 3.12525 27.1429C3.20304 27.9967 3.60674 28.7878 4.2525 29.3519L10.7451 35.0643C11.2137 35.4731 11.7866 35.7436 12.4 35.8458C13.0134 35.9479 13.6431 35.8776 14.2188 35.6427L17.9289 34.132L24.2563 49.6717C24.5919 50.496 25.2412 51.1532 26.0614 51.4987C26.8815 51.8443 27.8054 51.8498 28.6297 51.5142L50.3853 42.656C51.2096 42.3204 51.8667 41.671 52.2123 40.8509C52.5578 40.0307 52.5634 39.1069 52.2278 38.2826L45.9004 22.7429L49.6106 21.2322C50.1866 20.9981 50.6864 20.6086 51.0539 20.107C51.4215 19.6055 51.6425 19.0117 51.6923 18.3918L52.3479 9.76885C52.416 8.91415 52.1523 8.06606 51.6115 7.40071C51.0707 6.73536 50.2944 6.30387 49.4438 6.19586ZM12.9534 32.5347L6.46867 26.8417L12.0604 19.7189L16.6635 31.0241L12.9534 32.5347ZM49.1198 39.548L27.3642 48.4063L14.7096 17.3268L17.9729 15.9981C19.0447 17.6093 20.6406 18.8004 22.4902 19.3696C24.3397 19.9389 26.3292 19.8512 28.1215 19.1214C29.9138 18.3916 31.3986 17.0647 32.3245 15.3654C33.2504 13.6661 33.5604 11.699 33.2018 9.79733L36.4652 8.46859L49.1198 39.548ZM48.3451 18.1243L44.635 19.6349L40.0319 8.32976L49.0087 9.52071L48.3451 18.1243Z" fill="#333333"/>
</svg>
